<svg xmlns="http://www.w3.org/2000/svg" xmlns:xlink="http://www.w3.org/1999/xlink" width="241px" height="42px"
  viewBox="0 0 241 42" version="1.1">
  <g id="Pixelwolf" stroke="none" stroke-width="1" fill="none" fill-rule="evenodd">
    <g id="Home-Desktop" transform="translate(-100.000000, -100.000000)" fill="#141414">
      <g id="Header" transform="translate(100.000000, 70.000000)">
        <path
          d="M61.2205382,60.7200166 L68.8338529,60.7200166 L68.8338529,54.1771641 L72.8711859,54.1771641 C77.2834177,54.1771641 80.0519329,51.4101525 80.0519329,46.9714163 C80.0519329,41.5814896 76.3029444,38.9873938 71.2274183,38.9873938 L61.2205382,38.9873938 L61.2205382,60.7200166 L61.2205382,60.7200166 Z M68.8338529,44.3128469 L69.5836506,44.3128469 C72.1101606,44.3428904 73.4159783,45.0114476 73.4159783,46.7119914 C73.4159783,48.4701739 72.0383552,49.3128712 69.6124851,49.3128712 L68.8338529,49.3128712 L68.8338529,44.3128469 Z M82.2724406,60.7200166 L82.2724406,38.9873938 L90.1741509,38.9873938 L90.1741509,60.7200166 L82.2724406,60.7200166 Z M106.265865,38.9873938 L114.931918,38.9873938 L108.371035,49.6516129 L115.883557,60.7200166 L107.131,60.7200166 L103.958803,54.7824718 L100.930778,60.7200166 L92.1782215,60.7200166 L99.5465711,49.6516129 L92.9568536,38.9873938 L101.622906,38.9873938 L103.901134,43.8585218 L106.265865,38.9873938 Z M117.685786,60.7200166 L117.685786,38.9873938 L132.30679,38.9873938 L132.30679,44.9249386 L125.645165,44.9249386 L125.645165,47.2450723 L131.729999,47.2450723 L131.729999,52.0374445 L125.645165,52.0374445 L125.645165,54.7824718 L132.537517,54.7824718 L132.537517,60.7200166 L117.685786,60.7200166 Z M135.796218,60.7200166 L135.796218,38.9873938 L143.697877,38.9873938 L143.697877,53.7448233 L150.330667,53.7448233 L152.780319,60.7200166 L135.796218,60.7200166 Z M148.810658,38.9873938 L157.000713,38.9873938 L159.9134,50.7335871 L162.883706,38.9873938 L168.939756,38.9873938 L172.083119,50.7335871 L174.822749,38.9873938 L183.041638,38.9873938 L175.370654,60.7200166 L168.478354,60.7200166 L165.986905,50.3431236 L163.143267,60.7200166 L156.423973,60.7200166 L148.810658,38.9873938 Z M194.671566,38.641511 C201.275471,38.641511 206.697061,43.0802982 206.697061,49.9113439 C206.697061,56.8865371 201.304356,61.0658994 194.671566,61.0658994 C188.038724,61.0658994 182.646019,56.8865371 182.646019,49.9113439 C182.646019,43.0802982 188.06761,38.641511 194.671566,38.641511 Z M194.671566,45.7896712 C197.180469,45.7896712 198.737733,47.7208206 198.737733,50.0266721 C198.737733,52.5054396 197.065131,54.2059834 194.671566,54.2059834 C192.27795,54.2059834 190.605347,52.5054396 190.605347,50.0266721 C190.605347,47.7208206 192.162612,45.7896712 194.671566,45.7896712 Z M209.249446,60.7200166 L209.249446,38.9873938 L217.151105,38.9873938 L217.151105,53.7448233 L223.783896,53.7448233 L223.783896,60.7200166 L209.249446,60.7200166 Z M226.436716,60.7200166 L226.436716,38.9873938 L241,38.9873938 L241,44.9683461 L234.396044,44.9683461 L234.396044,47.216559 L240.192533,47.216559 L240.192533,52.3761862 L234.396044,52.3761862 L234.396044,60.7200166 L226.436716,60.7200166 Z M40.5192422,47.3265825 L47.1016107,51.2813072 L40.5791566,55.0782141 L43.8069816,57.2692475 L33.8195456,62.3894968 L33.7558036,66.1859957 L23.8278738,72 L13.5297402,66.2198648 L13.5278519,62.2860533 L3.43479509,57.2219124 L6.71113341,55.3329463 L0,51.3295604 L6.72806153,47.4315052 L10.0972315,30 L20.2287223,35.8892916 L23.7439732,33.8463334 L26.8046094,35.8216044 L37.0696216,30 L40.5192422,47.3265825 Z"
          id="Logo" />
      </g>
    </g>
  </g>
</svg>